<svg width="98" height="43" viewBox="0 0 98 43" fill="none" xmlns="http://www.w3.org/2000/svg">
<path d="M30.0638 29.6875C27.6828 29.6875 25.6157 30.9977 24.4931 32.9225C23.9367 33.8769 23.5938 34.9768 23.5938 36.1575C23.5938 39.7225 26.4956 42.6276 30.0638 42.6276C33.632 42.6276 36.5338 39.7225 36.5338 36.1575C36.5338 34.9768 36.1941 33.8769 35.6345 32.9225C34.5119 30.9977 32.448 29.6875 30.0638 29.6875Z" fill="#01AC67"/>
<path d="M75.3548 29.6875C72.9738 29.6875 70.9067 30.9977 69.7842 32.9225C69.2277 33.8769 68.8848 34.9768 68.8848 36.1575C68.8848 39.7225 71.7866 42.6276 75.3548 42.6276C78.923 42.6276 81.8249 39.7225 81.8249 36.1575C81.8249 34.9768 81.4851 33.8769 80.9255 32.9225C79.8029 30.9977 77.739 29.6875 75.3548 29.6875Z" fill="#01AC67"/>
<path d="M94.7649 23.2155V19.9805L75.3548 14.4324L52.7096 0.570312H17.1243V3.80534H36.5345V7.04036H0.949219V10.2754H39.7695V13.5104H7.41927V16.7454H23.5944V19.9805H17.1243V23.2155H4.18424V26.4505H20.3594V29.6855H17.1243V32.9206H7.41927V36.1556H20.3594C20.3594 35.0168 20.5923 33.9363 20.9546 32.9206C22.2939 29.1615 25.846 26.4505 30.0644 26.4505C34.2861 26.4505 37.835 29.1615 39.1743 32.9206C39.5334 33.9363 39.7695 35.0168 39.7695 36.1556H65.6497C65.6497 35.0168 65.8826 33.9363 66.2449 32.9206C67.5842 29.1615 71.1363 26.4505 75.3548 26.4505C79.5765 26.4505 83.1253 29.1615 84.4646 32.9206C84.8237 33.9363 85.0598 35.0168 85.0598 36.1556H94.7649V32.9206H97.9999V23.2155H94.7649Z" fill="#01AC67"/>
</svg>
